<mxfile host="app.diagrams.net" modified="2023-07-13T15:40:11.380Z" agent="Mozilla/5.0 (Windows NT 10.0; Win64; x64) AppleWebKit/537.36 (KHTML, like Gecko) Chrome/114.0.0.0 Safari/537.36 Edg/114.0.1823.79" etag="EaTslQig_ZMWGM_16cY3" version="21.6.2" type="github">
  <diagram name="Page-1" id="KNohfP7k-cvEQGo9makj">
    <mxGraphModel dx="1379" dy="764" grid="1" gridSize="10" guides="1" tooltips="1" connect="1" arrows="1" fold="1" page="1" pageScale="1" pageWidth="850" pageHeight="1100" math="0" shadow="0">
      <root>
        <mxCell id="0" />
        <mxCell id="1" parent="0" />
        <mxCell id="uSAnkE1UlTp1OrAA7kDW-1" value="Users" style="rounded=0;whiteSpace=wrap;html=1;" vertex="1" parent="1">
          <mxGeometry x="600" y="760" width="120" height="60" as="geometry" />
        </mxCell>
        <mxCell id="uSAnkE1UlTp1OrAA7kDW-2" value="Project" style="rounded=0;whiteSpace=wrap;html=1;" vertex="1" parent="1">
          <mxGeometry x="560" y="1010" width="120" height="60" as="geometry" />
        </mxCell>
        <mxCell id="uSAnkE1UlTp1OrAA7kDW-3" value="File" style="rounded=0;whiteSpace=wrap;html=1;" vertex="1" parent="1">
          <mxGeometry x="560" y="1090" width="120" height="60" as="geometry" />
        </mxCell>
        <mxCell id="uSAnkE1UlTp1OrAA7kDW-4" value="Spaces" style="rounded=0;whiteSpace=wrap;html=1;" vertex="1" parent="1">
          <mxGeometry x="990" y="1010" width="120" height="60" as="geometry" />
        </mxCell>
        <mxCell id="uSAnkE1UlTp1OrAA7kDW-5" value="Settings" style="rounded=0;whiteSpace=wrap;html=1;" vertex="1" parent="1">
          <mxGeometry x="710" y="1010" width="120" height="60" as="geometry" />
        </mxCell>
        <mxCell id="uSAnkE1UlTp1OrAA7kDW-6" value="Zone" style="rounded=0;whiteSpace=wrap;html=1;" vertex="1" parent="1">
          <mxGeometry x="1030" y="1090" width="120" height="60" as="geometry" />
        </mxCell>
        <mxCell id="uSAnkE1UlTp1OrAA7kDW-7" value="Space type" style="rounded=0;whiteSpace=wrap;html=1;" vertex="1" parent="1">
          <mxGeometry x="1140" y="1010" width="120" height="60" as="geometry" />
        </mxCell>
        <mxCell id="uSAnkE1UlTp1OrAA7kDW-8" value="Level" style="rounded=0;whiteSpace=wrap;html=1;" vertex="1" parent="1">
          <mxGeometry x="850" y="1010" width="120" height="60" as="geometry" />
        </mxCell>
        <mxCell id="uSAnkE1UlTp1OrAA7kDW-9" value="Surface" style="rounded=0;whiteSpace=wrap;html=1;" vertex="1" parent="1">
          <mxGeometry x="890" y="1090" width="120" height="60" as="geometry" />
        </mxCell>
        <mxCell id="uSAnkE1UlTp1OrAA7kDW-10" value="Load" style="rounded=0;whiteSpace=wrap;html=1;" vertex="1" parent="1">
          <mxGeometry x="1280" y="1010" width="120" height="60" as="geometry" />
        </mxCell>
        <mxCell id="uSAnkE1UlTp1OrAA7kDW-11" value="Fenestration" style="rounded=0;whiteSpace=wrap;html=1;" vertex="1" parent="1">
          <mxGeometry x="860" y="1180" width="120" height="60" as="geometry" />
        </mxCell>
        <mxCell id="uSAnkE1UlTp1OrAA7kDW-12" value="Schedule Profile" style="rounded=0;whiteSpace=wrap;html=1;" vertex="1" parent="1">
          <mxGeometry x="1200" y="1190" width="120" height="60" as="geometry" />
        </mxCell>
        <mxCell id="uSAnkE1UlTp1OrAA7kDW-13" value="Schedule Set" style="rounded=0;whiteSpace=wrap;html=1;" vertex="1" parent="1">
          <mxGeometry x="1210" y="1100" width="120" height="60" as="geometry" />
        </mxCell>
        <mxCell id="uSAnkE1UlTp1OrAA7kDW-14" value="Schedule Profile" style="rounded=0;whiteSpace=wrap;html=1;" vertex="1" parent="1">
          <mxGeometry x="1350" y="1185" width="120" height="60" as="geometry" />
        </mxCell>
        <mxCell id="uSAnkE1UlTp1OrAA7kDW-15" value="Load Type" style="rounded=0;whiteSpace=wrap;html=1;" vertex="1" parent="1">
          <mxGeometry x="1360" y="1095" width="120" height="60" as="geometry" />
        </mxCell>
      </root>
    </mxGraphModel>
  </diagram>
</mxfile>
